<svg width="22" height="22" viewBox="0 0 22 22" fill="none" xmlns="http://www.w3.org/2000/svg"><path d="M19.167 15.013v2.449a1.632 1.632 0 0 1-1.78 1.632 16.15 16.15 0 0 1-7.042-2.506 15.916 15.916 0 0 1-4.897-4.898 16.158 16.158 0 0 1-2.505-7.077 1.633 1.633 0 0 1 1.624-1.78h2.448a1.632 1.632 0 0 1 1.632 1.404c.103.784.295 1.554.571 2.294a1.633 1.633 0 0 1-.367 1.723L7.815 9.29a13.06 13.06 0 0 0 4.896 4.898l1.037-1.037a1.633 1.633 0 0 1 1.722-.367c.74.276 1.51.468 2.293.571a1.632 1.632 0 0 1 1.404 1.658z" stroke="#888" stroke-width="1.5" stroke-linecap="round" stroke-linejoin="round"/></svg>